<svg xmlns="http://www.w3.org/2000/svg" width="333" height="244" style=""><rect id="backgroundrect" width="100%" height="100%" x="0" y="0" fill="none" stroke="none"/><g class="currentLayer" style=""><title>Layer 1</title><g fill-rule="evenodd" id="svg_1" class="" fill="#dadada" fill-opacity="1"><g id="i-like-food" fill="#dadada" fill-opacity="1"><path d="M72.37584495544434,15.992536455392838 c0.20000000298023224,0.6499999761581421 0.38999998569488525,1.3200000524520874 0.5400000214576721,2 H69.17584419250488 l1.1699999570846558,2.3399999141693115 l0.44999998807907104,0.8999999761581421 l-0.23999999463558197,0.10999999940395355 V27.992536455392838 a5,5 0 0 1 -2.2300000190734863,8.9399995803833 l-0.019999999552965164,0.05999999865889549 a8,8 0 0 1 -7.75,6 h-20 a8,8 0 0 1 -7.739999771118164,-6 l-0.019999999552965164,-0.05999999865889549 A5,5 0 0 1 30.555843353271484,27.992536455392838 v-6.760000228881836 l-0.7900000214576721,-1.5800000429153442 l-0.4399999976158142,-0.8999999761581421 l0.8999999761581421,-0.4399999976158142 l0.6299999952316284,-0.3199999928474426 H28.005844116210938 a23.010000228881836,23.010000228881836 0 0 1 44.369998931884766,-2 zm-36.81999969482422,2 a1,1 0 0 0 -0.4399999976158142,0.10000000149011612 l-3.0999999046325684,1.559999942779541 l0.8899999856948853,1.7899999618530273 l1.309999942779541,-0.6600000262260437 a3,3 0 0 1 2.690000057220459,0 l2.200000047683716,1.100000023841858 a1,1 0 0 0 0.8999999761581421,0 l2.2100000381469727,-1.100000023841858 a3,3 0 0 1 2.690000057220459,0 l2.200000047683716,1.100000023841858 a1,1 0 0 0 0.8999999761581421,0 l2.2100000381469727,-1.100000023841858 a3,3 0 0 1 2.690000057220459,0 l2.200000047683716,1.100000023841858 a1,1 0 0 0 0.8600000143051147,0.019999999552965164 l2.880000114440918,-1.2699999809265137 a3,3 0 0 1 2.430000066757202,0 l2.880000114440918,1.2699999809265137 a1,1 0 0 0 0.8500000238418579,-0.019999999552965164 l3.0999999046325684,-1.5499999523162842 l-0.8899999856948853,-1.7899999618530273 l-1.4199999570846558,0.7099999785423279 a3,3 0 0 1 -2.559999942779541,0.05999999865889549 l-2.7699999809265137,-1.2300000190734863 a1,1 0 0 0 -0.4000000059604645,-0.09000000357627869 h-0.009999999776482582 a1,1 0 0 0 -0.4000000059604645,0.09000000357627869 l-2.7799999713897705,1.2300000190734863 a3,3 0 0 1 -2.559999942779541,-0.05999999865889549 l-2.299999952316284,-1.149999976158142 a1,1 0 0 0 -0.44999998807907104,-0.10999999940395355 h-0.009999999776482582 a1,1 0 0 0 -0.4399999976158142,0.10000000149011612 L48.90584409236908,19.21253576874733 a3,3 0 0 1 -2.690000057220459,0 l-2.200000047683716,-1.100000023841858 a1,1 0 0 0 -0.44999998807907104,-0.10999999940395355 h-0.009999999776482582 a1,1 0 0 0 -0.4399999976158142,0.10000000149011612 l-2.2100000381469727,1.1100000143051147 a3,3 0 0 1 -2.690000057220459,0 l-2.200000047683716,-1.100000023841858 a1,1 0 0 0 -0.44999998807907104,-0.10999999940395355 h-0.009999999776482582 zm0,-2 h-4.900000095367432 a21.010000228881836,21.010000228881836 0 0 1 39.61000061035156,0 h-2.0899999141693115 l-0.05999999865889549,-0.12999999523162842 l-0.25999999046325684,0.12999999523162842 h-32.310001373291016 zm30.350000381469727,7.679999828338623 l1.3600000143051147,-0.6800000071525574 h1.2999999523162842 v2 h-36 v-1.149999976158142 l0.3400000035762787,-0.17000000178813934 l1.3600000143051147,-0.6800000071525574 h2.5899999141693115 l1.3600000143051147,0.6800000071525574 a3,3 0 0 0 2.690000057220459,0 l1.3600000143051147,-0.6800000071525574 h2.5899999141693115 l1.3600000143051147,0.6800000071525574 a3,3 0 0 0 2.690000057220459,0 L50.265844106674194,22.992536455392838 h2.5899999141693115 l1.3600000143051147,0.6800000071525574 a3,3 0 0 0 2.559999942779541,0.05999999865889549 l1.6699999570846558,-0.7400000095367432 h3.2300000190734863 l1.6699999570846558,0.7400000095367432 a3,3 0 0 0 2.559999942779541,-0.05999999865889549 zM34.18584442138672,26.992536455392838 l16.3700008392334,4.909999847412109 L66.93584442138672,26.992536455392838 h-32.75 zm-0.6299999952316284,2 h0.3400000035762787 l16.65999984741211,5 l16.670000076293945,-5 h0.33000001311302185 a3,3 0 1 1 0,6 h-34 a3,3 0 1 1 0,-6 zm1.350000023841858,8 a6,6 0 0 0 5.650000095367432,4 h20 a6,6 0 0 0 5.659999847412109,-4 H34.90584373474121 z" id="svg_2" fill="#dadada" fill-opacity="1"/><path id="path6_fill-copy" d="M332.37583923339844,15.992536455392838 c0.20000000298023224,0.6499999761581421 0.38999998569488525,1.3200000524520874 0.5400000214576721,2 H329.1758575439453 l1.1699999570846558,2.3399999141693115 l0.44999998807907104,0.8999999761581421 l-0.23999999463558197,0.10999999940395355 V27.992536455392838 a5,5 0 0 1 -2.2300000190734863,8.9399995803833 l-0.019999999552965164,0.05999999865889549 a8,8 0 0 1 -7.75,6 h-20 a8,8 0 0 1 -7.739999771118164,-6 l-0.019999999552965164,-0.05999999865889549 a5,5 0 0 1 -2.240000009536743,-8.9399995803833 v-6.760000228881836 l-0.7900000214576721,-1.5800000429153442 l-0.4399999976158142,-0.8999999761581421 l0.8999999761581421,-0.4399999976158142 l0.6299999952316284,-0.3199999928474426 H288.00584411621094 a23.010000228881836,23.010000228881836 0 0 1 44.369998931884766,-2 zm-36.81999969482422,2 a1,1 0 0 0 -0.4399999976158142,0.10000000149011612 l-3.0999999046325684,1.559999942779541 l0.8899999856948853,1.7899999618530273 l1.309999942779541,-0.6600000262260437 a3,3 0 0 1 2.690000057220459,0 l2.200000047683716,1.100000023841858 a1,1 0 0 0 0.8999999761581421,0 l2.2100000381469727,-1.100000023841858 a3,3 0 0 1 2.690000057220459,0 l2.200000047683716,1.100000023841858 a1,1 0 0 0 0.8999999761581421,0 l2.2100000381469727,-1.100000023841858 a3,3 0 0 1 2.690000057220459,0 l2.200000047683716,1.100000023841858 a1,1 0 0 0 0.8600000143051147,0.019999999552965164 l2.880000114440918,-1.2699999809265137 a3,3 0 0 1 2.430000066757202,0 l2.880000114440918,1.2699999809265137 a1,1 0 0 0 0.8500000238418579,-0.019999999552965164 l3.0999999046325684,-1.5499999523162842 l-0.8899999856948853,-1.7899999618530273 l-1.4199999570846558,0.7099999785423279 a3,3 0 0 1 -2.559999942779541,0.05999999865889549 l-2.7699999809265137,-1.2300000190734863 a1,1 0 0 0 -0.4000000059604645,-0.09000000357627869 h-0.009999999776482582 a1,1 0 0 0 -0.4000000059604645,0.09000000357627869 l-2.7799999713897705,1.2300000190734863 a3,3 0 0 1 -2.559999942779541,-0.05999999865889549 l-2.299999952316284,-1.149999976158142 a1,1 0 0 0 -0.44999998807907104,-0.10999999940395355 h-0.009999999776482582 a1,1 0 0 0 -0.4399999976158142,0.10000000149011612 l-2.2100000381469727,1.1100000143051147 a3,3 0 0 1 -2.690000057220459,0 l-2.200000047683716,-1.100000023841858 a1,1 0 0 0 -0.44999998807907104,-0.10999999940395355 h-0.009999999776482582 a1,1 0 0 0 -0.4399999976158142,0.10000000149011612 l-2.2100000381469727,1.1100000143051147 a3,3 0 0 1 -2.690000057220459,0 l-2.200000047683716,-1.100000023841858 a1,1 0 0 0 -0.44999998807907104,-0.10999999940395355 h-0.009999999776482582 zm0,-2 h-4.900000095367432 a21.010000228881836,21.010000228881836 0 0 1 39.61000061035156,0 h-2.0899999141693115 l-0.05999999865889549,-0.12999999523162842 l-0.25999999046325684,0.12999999523162842 h-32.310001373291016 zm30.350000381469727,7.679999828338623 l1.3600000143051147,-0.6800000071525574 h1.2999999523162842 v2 h-36 v-1.149999976158142 l0.3400000035762787,-0.17000000178813934 l1.3600000143051147,-0.6800000071525574 h2.5899999141693115 l1.3600000143051147,0.6800000071525574 a3,3 0 0 0 2.690000057220459,0 l1.3600000143051147,-0.6800000071525574 h2.5899999141693115 l1.3600000143051147,0.6800000071525574 a3,3 0 0 0 2.690000057220459,0 l1.3600000143051147,-0.6800000071525574 h2.5899999141693115 l1.3600000143051147,0.6800000071525574 a3,3 0 0 0 2.559999942779541,0.05999999865889549 l1.6699999570846558,-0.7400000095367432 h3.2300000190734863 l1.6699999570846558,0.7400000095367432 a3,3 0 0 0 2.559999942779541,-0.05999999865889549 zM294.1858367919922,26.992536455392838 l16.3700008392334,4.909999847412109 L326.9358367919922,26.992536455392838 h-32.75 zm-0.6299999952316284,2 h0.3400000035762787 l16.65999984741211,5 l16.670000076293945,-5 h0.33000001311302185 a3,3 0 1 1 0,6 h-34 a3,3 0 1 1 0,-6 zm1.350000023841858,8 a6,6 0 0 0 5.650000095367432,4 h20 a6,6 0 0 0 5.659999847412109,-4 H294.9058380126953 z" fill="#dadada" fill-opacity="1"/><path d="M207.50584411621094,21.01253691315651 A9,9 0 0 0 199.00584411621094,14.992536455392838 h-42 a9,9 0 0 0 -8.5,6.019999980926514 a6,6 0 0 0 0.019999999552965164,11.960000038146973 A8.989999771118164,8.989999771118164 0 0 0 157.00584411621094,44.99253645539284 h42 a9,9 0 0 0 8.479999542236328,-12.020000457763672 a6,6 0 0 0 0.019999999552965164,-11.960000038146973 zM199.00584411621094,16.992536455392838 h-42 a7,7 0 0 0 -6.329999923706055,4 h54.65999984741211 a7,7 0 0 0 -6.329999923706055,-4 zm-9.34000015258789,26 a8.979999542236328,8.979999542236328 0 0 0 3.3399999141693115,-7 h-2 a7,7 0 0 1 -7,7 h-4.340000152587891 a8.979999542236328,8.979999542236328 0 0 0 3.3399999141693115,-7 h-2 a7,7 0 0 1 -7,7 h-4.340000152587891 a8.979999542236328,8.979999542236328 0 0 0 3.3399999141693115,-7 h-2 a7,7 0 0 1 -7,7 h-7 a7,7 0 1 1 0,-14 h42 a7,7 0 1 1 0,14 h-9.34000015258789 zM157.00584411621094,26.992536455392838 a9,9 0 0 0 -7.480000019073486,4 H149.00584411621094 a4,4 0 1 1 0,-8 h58 a4,4 0 0 1 0,8 h-0.5199999809265137 a9,9 0 0 0 -7.480000019073486,-4 h-42 z" id="svg_3" fill="#dadada" fill-opacity="1"/><path d="M87.00584411621094,114.99253645539284 a8,8 0 1 0 0,-16 a8,8 0 0 0 0,16 zm6,-8 a6,6 0 1 1 -12,0 a6,6 0 0 1 12,0 zm-3,-29 v-2 h8 v-6 H88.00584411621094 a4,4 0 0 0 -4,4 v10 H70.00584411621094 l-1.3300000429153442,4 l-0.6700000166893005,2 h2.190000057220459 L74.00584411621094,129.99253645539284 h26 l3.809999942779541,-40 H106.00584411621094 l-0.6700000166893005,-2 L104.00584411621094,83.99253645539284 H90.00584411621094 v-6 zm-4,-4 v10 h2 V73.99253645539284 h8 v-2 h-8 a2,2 0 0 0 -2,2 zm2,12 h14.5600004196167 l0.6700000166893005,2 H70.77584457397461 l0.6700000166893005,-2 H88.00584411621094 zm13.800000190734863,4 H72.20584487915039 l3.619999885559082,38 h22.360000610351562 l3.619999885559082,-38 z" id="svg_4" fill="#dadada" fill-opacity="1"/><path d="M177.00584411621094,91.99253645539284 h-6 v4 h-6 v4 h-6 v14 h-3 l0.23999999463558197,2 l3.759999990463257,32 h36 l3.759999990463257,-32 l0.23999999463558197,-2 h-3 v-14 h-6 v-4 h-6 v-4 h-8 zm18,22 v-12 h-4 v4 h3 v8 h1 zm-3,0 v-6 h-4 v6 h4 zm-6,6 v-16 h-4 v19.170000076293945 c1.600000023841858,-0.699999988079071 2.9700000286102295,-1.7999999523162842 4,-3.1700000762939453 zm-6,3.799999952316284 V99.99253645539284 h-4 v23.799999237060547 a10.039999961853027,10.039999961853027 0 0 0 4,0 zm-6,-0.6299999952316284 V103.99253645539284 h-4 v16 a10.039999961853027,10.039999961853027 0 0 0 4,3.1700000762939453 zm-6,-9.170000076293945 v-6 h-4 v6 h4 zm-6,0 v-8 h3 v-4 h-4 v12 h1 zm27,-12 v-4 h-4 v4 h3 v4 h1 v-4 zm-6,0 v-8 h-4 v4 h3 v4 h1 zm-6,-4 v-4 h-4 v8 h1 v-4 h3 zm-6,4 v-4 h-4 v8 h1 v-4 h3 zm7,24 a12,12 0 0 0 11.829999923706055,-10 h7.920000076293945 l-3.5299999713897705,30 h-32.439998626708984 l-3.5299999713897705,-30 h7.920000076293945 A12,12 0 0 0 178.00584411621094,125.99253645539284 z" id="svg_5" fill="#dadada" fill-opacity="1"/><path d="M260.00584411621094,85.99253645539284 v2 h-4 v-2 h4 zm4,0 h-2 v2 h2 v-2 zm-20,0 v0.10000000149011612 a5,5 0 0 0 -0.5600000023841858,9.649999618530273 l0.05999999865889549,0.25 l1.1200000047683716,4.480000019073486 a2,2 0 0 0 1.940000057220459,1.5199999809265137 h0.009999999776482582 l7.019999980926514,24.549999237060547 a2,2 0 0 0 1.9199999570846558,1.4500000476837158 h4.980000019073486 a2,2 0 0 0 1.9199999570846558,-1.4500000476837158 l7.019999980926514,-24.549999237060547 a2,2 0 0 0 1.9500000476837158,-1.5199999809265137 L272.50584411621094,95.99253645539284 l0.05999999865889549,-0.25 a5,5 0 0 0 -0.5600000023841858,-9.649999618530273 V85.99253645539284 a14,14 0 0 0 -28,0 zm4,0 h6 v2 h-9 a3,3 0 1 0 0,6 H271.00584411621094 a3,3 0 1 0 0,-6 H268.00584411621094 v-2 h2 a12,12 0 1 0 -24,0 h2 zm-1.440000057220459,14 l-1,-4 h24.8799991607666 l-1,4 h-22.8799991607666 zm8.949999809265137,26 l-6.860000133514404,-24 h18.700000762939453 l-6.860000133514404,24 h-4.980000019073486 zM198.00584411621094,241.99253645539284 a22,22 0 1 0 0,-44 a22,22 0 0 0 0,44 zm24,-22 a24,24 0 1 1 -48,0 a24,24 0 0 1 48,0 zm-28.3799991607666,17.729999542236328 l2.0399999618530273,-0.8700000047683716 a6,6 0 0 1 4.679999828338623,0 l2.0399999618530273,0.8700000047683716 a2,2 0 0 0 2.5,-0.8199999928474426 l1.1399999856948853,-1.899999976158142 a6,6 0 0 1 3.7899999618530273,-2.75 l2.1500000953674316,-0.5 a2,2 0 0 0 1.5399999618530273,-2.119999885559082 l-0.1899999976158142,-2.200000047683716 a6,6 0 0 1 1.4500000476837158,-4.460000038146973 l1.4500000476837158,-1.6699999570846558 a2,2 0 0 0 0,-2.619999885559082 l-1.4500000476837158,-1.6699999570846558 a6,6 0 0 1 -1.4500000476837158,-4.460000038146973 l0.20000000298023224,-2.200000047683716 a2,2 0 0 0 -1.5499999523162842,-2.130000114440918 l-2.1500000953674316,-0.5 a6,6 0 0 1 -3.799999952316284,-2.75 l-1.1299999952316284,-1.899999976158142 a2,2 0 0 0 -2.5,-0.800000011920929 l-2.0399999618530273,0.8600000143051147 a6,6 0 0 1 -4.679999828338623,0 l-2.0399999618530273,-0.8700000047683716 a2,2 0 0 0 -2.5,0.8199999928474426 l-1.1399999856948853,1.899999976158142 a6,6 0 0 1 -3.7899999618530273,2.75 l-2.1500000953674316,0.5 a2,2 0 0 0 -1.5399999618530273,2.119999885559082 l0.1899999976158142,2.200000047683716 a6,6 0 0 1 -1.4500000476837158,4.460000038146973 l-1.4500000476837158,1.6699999570846558 a2,2 0 0 0 0,2.619999885559082 l1.4500000476837158,1.6699999570846558 a6,6 0 0 1 1.4500000476837158,4.460000038146973 l-0.20000000298023224,2.200000047683716 a2,2 0 0 0 1.5499999523162842,2.130000114440918 l2.1500000953674316,0.5 a6,6 0 0 1 3.799999952316284,2.75 l1.1299999952316284,1.899999976158142 a2,2 0 0 0 2.5,0.800000011920929 zm2.819999933242798,0.9700000286102295 a4,4 0 0 1 3.119999885559082,0 l2.0399999618530273,0.8700000047683716 a4,4 0 0 0 4.989999771118164,-1.6200000047683716 l1.1399999856948853,-1.899999976158142 a4,4 0 0 1 2.5299999713897705,-1.840000033378601 l2.1500000953674316,-0.5 a4,4 0 0 0 3.0899999141693115,-4.239999771118164 l-0.20000000298023224,-2.200000047683716 a4,4 0 0 1 0.9700000286102295,-2.9800000190734863 l1.4500000476837158,-1.6699999570846558 a4,4 0 0 0 0,-5.239999771118164 l-1.4500000476837158,-1.6699999570846558 a4,4 0 0 1 -0.9700000286102295,-2.9700000286102295 l0.20000000298023224,-2.200000047683716 a4,4 0 0 0 -3.0899999141693115,-4.25 l-2.1500000953674316,-0.5 a4,4 0 0 1 -2.5299999713897705,-1.840000033378601 l-1.1399999856948853,-1.899999976158142 a4,4 0 0 0 -5,-1.6200000047683716 l-2.0299999713897705,0.8700000047683716 a4,4 0 0 1 -3.119999885559082,0 l-2.0399999618530273,-0.8700000047683716 a4,4 0 0 0 -4.989999771118164,1.6200000047683716 l-1.1399999856948853,1.899999976158142 a4,4 0 0 1 -2.5299999713897705,1.840000033378601 l-2.1500000953674316,0.5 a4,4 0 0 0 -3.0899999141693115,4.239999771118164 l0.20000000298023224,2.200000047683716 a4,4 0 0 1 -0.9700000286102295,2.9800000190734863 l-1.4500000476837158,1.6699999570846558 a4,4 0 0 0 0,5.239999771118164 l1.4500000476837158,1.6699999570846558 a4,4 0 0 1 0.9700000286102295,2.9700000286102295 l-0.20000000298023224,2.200000047683716 a4,4 0 0 0 3.0899999141693115,4.25 l2.1500000953674316,0.5 a4,4 0 0 1 2.5299999713897705,1.840000033378601 l1.1399999856948853,1.899999976158142 a4,4 0 0 0 5,1.6200000047683716 l2.0299999713897705,-0.8700000047683716 zM200.00584411621094,206.99253645539284 a1,1 0 1 1 2,0 a1,1 0 0 1 -2,0 zm6,2 a1,1 0 1 1 2,0 a1,1 0 0 1 -2,0 zm-11,1 a1,1 0 1 1 2,0 a1,1 0 0 1 -2,0 zm-6,0 a1,1 0 1 1 2,0 a1,1 0 0 1 -2,0 zm3,-5 a1,1 0 1 1 2,0 a1,1 0 0 1 -2,0 zm-8,8 a1,1 0 1 1 2,0 a1,1 0 0 1 -2,0 zm3,6 a1,1 0 1 1 2,0 a1,1 0 0 1 -2,0 zm0,6 a1,1 0 1 1 2,0 a1,1 0 0 1 -2,0 zm4,7 a1,1 0 1 1 2,0 a1,1 0 0 1 -2,0 zm5,-2 a1,1 0 1 1 2,0 a1,1 0 0 1 -2,0 zm5,4 a1,1 0 1 1 2,0 a1,1 0 0 1 -2,0 zm4,-6 a1,1 0 1 1 2,0 a1,1 0 0 1 -2,0 zm6,-4 a1,1 0 1 1 2,0 a1,1 0 0 1 -2,0 zm-4,-3 a1,1 0 1 1 2,0 a1,1 0 0 1 -2,0 zm4,-3 a1,1 0 1 1 2,0 a1,1 0 0 1 -2,0 zm-5,-4 a1,1 0 1 1 2,0 a1,1 0 0 1 -2,0 zm-24,6 a1,1 0 1 1 2,0 a1,1 0 0 1 -2,0 zm16,5 a5,5 0 1 0 0,-10 a5,5 0 0 0 0,10 zm7,-5 a7,7 0 1 1 -14,0 a7,7 0 0 1 14,0 zm86,-29 a1,1 0 0 0 0,2 h2 a1,1 0 0 0 0,-2 h-2 zm19,9 a1,1 0 0 1 1,-1 h2 a1,1 0 0 1 0,2 h-2 a1,1 0 0 1 -1,-1 zm-14,5 a1,1 0 0 0 0,2 h2 a1,1 0 0 0 0,-2 h-2 zm-25,1 a1,1 0 0 0 0,2 h2 a1,1 0 0 0 0,-2 h-2 zm5,4 a1,1 0 0 0 0,2 h2 a1,1 0 0 0 0,-2 h-2 zm9,0 a1,1 0 0 1 1,-1 h2 a1,1 0 0 1 0,2 h-2 a1,1 0 0 1 -1,-1 zm15,1 a1,1 0 0 1 1,-1 h2 a1,1 0 0 1 0,2 h-2 a1,1 0 0 1 -1,-1 zm12,-2 a1,1 0 0 0 0,2 h2 a1,1 0 0 0 0,-2 h-2 zm-11,-14 a1,1 0 0 1 1,-1 h2 a1,1 0 0 1 0,2 h-2 a1,1 0 0 1 -1,-1 zm-19,0 a1,1 0 0 0 0,2 h2 a1,1 0 0 0 0,-2 h-2 zm6,5 a1,1 0 0 1 1,-1 h2 a1,1 0 0 1 0,2 h-2 a1,1 0 0 1 -1,-1 zm-25,15 c0,-0.4699999988079071 0.009999999776482582,-0.9399999976158142 0.029999999329447746,-1.399999976158142 a5,5 0 0 1 -1.7000000476837158,-8 a3.990000009536743,3.990000009536743 0 0 1 1.8799999952316284,-5.179999828338623 a5,5 0 0 1 3.4000000953674316,-6.21999979019165 a3,3 0 0 1 1.4600000381469727,-1.0499999523162842 a5,5 0 0 1 7.760000228881836,-3.2699999809265137 A30.860000610351562,30.860000610351562 0 0 1 294.00584411621094,183.99253645539284 c6.789999961853027,0 13.0600004196167,2.180000066757202 18.170000076293945,5.880000114440918 a5,5 0 0 1 7.760000228881836,3.2699999809265137 a3,3 0 0 1 1.4700000286102295,1.0499999523162842 a5,5 0 0 1 3.4000000953674316,6.21999979019165 a4,4 0 0 1 1.8700000047683716,5.179999828338623 a4.980000019073486,4.980000019073486 0 0 1 -1.7000000476837158,8 c0.019999999552965164,0.46000000834465027 0.029999999329447746,0.9300000071525574 0.029999999329447746,1.399999976158142 v1 h-62 v-1 zm0.8299999833106995,-7.170000076293945 a30.899999618530273,30.899999618530273 0 0 0 -0.6200000047683716,3.569999933242798 a3,3 0 0 1 -0.6100000143051147,-4.199999809265137 c0.3700000047683716,0.2800000011920929 0.7799999713897705,0.49000000953674316 1.2300000190734863,0.6299999952316284 zm1.4900000095367432,-4.610000133514404 c-0.36000001430511475,0.8700000047683716 -0.6800000071525574,1.7599999904632568 -0.9599999785423279,2.680000066757202 a2,2 0 0 1 -0.20999999344348907,-3.7100000381469727 c0.33000001311302185,0.4000000059604645 0.7300000190734863,0.75 1.1699999570846558,1.0299999713897705 zm2.319999933242798,-4.539999961853027 c-0.5400000214576721,0.8600000143051147 -1.0299999713897705,1.7599999904632568 -1.4900000095367432,2.680000066757202 a3,3 0 0 1 -0.07000000029802322,-4.670000076293945 a3,3 0 0 0 1.559999942779541,1.9900000095367432 zm1.1399999856948853,-1.7000000476837158 c0.3499999940395355,-0.5 0.7200000286102295,-0.9800000190734863 1.100000023841858,-1.4600000381469727 a1,1 0 1 0 -1.100000023841858,1.4500000476837158 zm5.340000152587891,-5.769999980926514 c-1.0299999713897705,0.8600000143051147 -2,1.7899999618530273 -2.9000000953674316,2.7699999809265137 a3,3 0 0 0 -1.1100000143051147,-0.7699999809265137 a3,3 0 0 1 4,-2 zm42.65999984741211,2.7699999809265137 c-0.8999999761581421,-0.9800000190734863 -1.8700000047683716,-1.899999976158142 -2.9000000953674316,-2.7699999809265137 a3,3 0 0 1 4.010000228881836,2 a3,3 0 0 0 -1.100000023841858,0.7699999809265137 zm1.340000033378601,1.5399999618530273 c0.3799999952316284,0.47999998927116394 0.75,0.9599999785423279 1.100000023841858,1.4500000476837158 a1,1 0 1 0 -1.100000023841858,-1.4500000476837158 zm3.7300000190734863,5.840000152587891 c-0.46000000834465027,-0.9200000166893005 -0.949999988079071,-1.8200000524520874 -1.5,-2.680000066757202 a3,3 0 0 0 1.5700000524520874,-1.9900000095367432 a3,3 0 0 1 -0.07000000029802322,4.670000076293945 zm1.7999999523162842,4.53000020980835 c-0.28999999165534973,-0.8999999761581421 -0.6000000238418579,-1.7999999523162842 -0.9700000286102295,-2.6700000762939453 c0.4399999976158142,-0.2800000011920929 0.8399999737739563,-0.6299999952316284 1.1699999570846558,-1.0299999713897705 a2,2 0 0 1 -0.20000000298023224,3.700000047683716 zm1.1399999856948853,5.510000228881836 c-0.14000000059604645,-1.2100000381469727 -0.3499999940395355,-2.4000000953674316 -0.6200000047683716,-3.569999933242798 c0.44999998807907104,-0.14000000059604645 0.8600000143051147,-0.3499999940395355 1.2300000190734863,-0.6299999952316284 a2.990000009536743,2.990000009536743 0 0 1 -0.6000000238418579,4.199999809265137 zM323.00584411621094,213.99253645539284 a29,29 0 0 0 -57.970001220703125,0 h57.959999084472656 zM120.33584594726562,198.11253157258034 c-0.20999999344348907,-0.3199999928474426 -0.3400000035762787,-0.699999988079071 -0.3400000035762787,-1.1200000047683716 v-12 h-2 v12 a4.010000228881836,4.010000228881836 0 0 0 7.090000152587891,2.5399999618530273 c0.5699999928474426,-0.6899999976158142 0.9100000262260437,-1.5700000524520874 0.9100000262260437,-2.5399999618530273 v-12 h-2 v12 a1.9900000095367432,1.9900000095367432 0 0 1 -2,2 a2,2 0 0 1 -1.659999966621399,-0.8799999952316284 zM123.00584411621094,175.99253645539284 c0.3799999952316284,0 0.7400000095367432,-0.03999999910593033 1.100000023841858,-0.11999999731779099 a4,4 0 0 0 6.190000057220459,2.4000000953674316 A13.9399995803833,13.9399995803833 0 0 1 132.00584411621094,184.99253645539284 v24 a6,6 0 0 1 -6,6 h-3 v9 a5,5 0 1 1 -10,0 v-9 h-3 a6,6 0 0 1 -6,-6 v-24 a14,14 0 0 1 14,-14 a5,5 0 0 0 5,5 zm-17,15 v12 a1.9900000095367432,1.9900000095367432 0 0 0 1.2200000286102295,1.840000033378601 a2,2 0 0 0 2.440000057220459,-0.7200000286102295 c0.20999999344348907,-0.3199999928474426 0.3400000035762787,-0.699999988079071 0.3400000035762787,-1.1200000047683716 v-12 h2 v12 a3.9800000190734863,3.9800000190734863 0 0 1 -5.349999904632568,3.7699999809265137 a3.9800000190734863,3.9800000190734863 0 0 1 -0.6499999761581421,-0.30000001192092896 V208.99253645539284 a4,4 0 0 0 4,4 h16 a4,4 0 0 0 4,-4 v-24 c0.009999999776482582,-1.5299999713897705 -0.23000000417232513,-2.880000114440918 -0.7200000286102295,-4.170000076293945 c-0.4300000071525574,0.10000000149011612 -0.8700000047683716,0.1599999964237213 -1.2799999713897705,0.17000000178813934 a6,6 0 0 1 -5.199999809265137,-3 a7,7 0 0 1 -6.46999979019165,-4.880000114440918 A12,12 0 0 0 106.00584411621094,184.99253645539284 v6 zm9,24 v9 a3,3 0 1 0 6,0 v-9 h-6 z" id="svg_6" fill="#dadada" fill-opacity="1"/><path d="M31.005844116210938,190.99253645539284 a1,1 0 0 0 0,2 h2 a1,1 0 0 0 0,-2 h-2 zm19,9 a1,1 0 0 1 1,-1 h2 a1,1 0 0 1 0,2 H51.00584411621094 a1,1 0 0 1 -1,-1 zm-14,5 a1,1 0 0 0 0,2 h2 a1,1 0 0 0 0,-2 h-2 zm-25,1 a1,1 0 0 0 0,2 h2 a1,1 0 0 0 0,-2 h-2 zm5,4 a1,1 0 0 0 0,2 h2 a1,1 0 0 0 0,-2 h-2 zm9,0 a1,1 0 0 1 1,-1 h2 a1,1 0 0 1 0,2 h-2 a1,1 0 0 1 -1,-1 zm15,1 a1,1 0 0 1 1,-1 h2 a1,1 0 0 1 0,2 h-2 a1,1 0 0 1 -1,-1 zm12,-2 a1,1 0 0 0 0,2 h2 a1,1 0 0 0 0,-2 H52.00584411621094 zm-11,-14 a1,1 0 0 1 1,-1 h2 a1,1 0 0 1 0,2 h-2 a1,1 0 0 1 -1,-1 zm-19,0 a1,1 0 0 0 0,2 h2 a1,1 0 0 0 0,-2 h-2 zm6,5 a1,1 0 0 1 1,-1 h2 a1,1 0 0 1 0,2 h-2 a1,1 0 0 1 -1,-1 zm-25,15 c0,-0.4699999988079071 0.009999999776482582,-0.9399999976158142 0.029999999329447746,-1.399999976158142 a5,5 0 0 1 -1.7000000476837158,-8 a3.990000009536743,3.990000009536743 0 0 1 1.8799999952316284,-5.179999828338623 a5,5 0 0 1 3.4000000953674316,-6.21999979019165 a3,3 0 0 1 1.4600000381469727,-1.0499999523162842 a5,5 0 0 1 7.760000228881836,-3.2699999809265137 A30.860000610351562,30.860000610351562 0 0 1 34.00584411621094,183.99253645539284 c6.789999961853027,0 13.0600004196167,2.180000066757202 18.170000076293945,5.880000114440918 a5,5 0 0 1 7.760000228881836,3.2699999809265137 a3,3 0 0 1 1.4700000286102295,1.0499999523162842 a5,5 0 0 1 3.4000000953674316,6.21999979019165 a4,4 0 0 1 1.8700000047683716,5.179999828338623 a4.980000019073486,4.980000019073486 0 0 1 -1.7000000476837158,8 c0.019999999552965164,0.46000000834465027 0.029999999329447746,0.9300000071525574 0.029999999329447746,1.399999976158142 v1 h-62 v-1 zm0.8299999833106995,-7.170000076293945 a30.899999618530273,30.899999618530273 0 0 0 -0.6200000047683716,3.569999933242798 a3,3 0 0 1 -0.6100000143051147,-4.199999809265137 c0.3700000047683716,0.2800000011920929 0.7799999713897705,0.49000000953674316 1.2300000190734863,0.6299999952316284 zm1.4900000095367432,-4.610000133514404 c-0.36000001430511475,0.8700000047683716 -0.6800000071525574,1.7599999904632568 -0.9599999785423279,2.680000066757202 a2,2 0 0 1 -0.20999999344348907,-3.7100000381469727 c0.33000001311302185,0.4000000059604645 0.7300000190734863,0.75 1.1699999570846558,1.0299999713897705 zm2.319999933242798,-4.539999961853027 c-0.5400000214576721,0.8600000143051147 -1.0299999713897705,1.7599999904632568 -1.4900000095367432,2.680000066757202 a3,3 0 0 1 -0.07000000029802322,-4.670000076293945 a3,3 0 0 0 1.559999942779541,1.9900000095367432 zm1.1399999856948853,-1.7000000476837158 c0.3499999940395355,-0.5 0.7200000286102295,-0.9800000190734863 1.100000023841858,-1.4600000381469727 a1,1 0 1 0 -1.100000023841858,1.4500000476837158 zm5.340000152587891,-5.769999980926514 c-1.0299999713897705,0.8600000143051147 -2,1.7899999618530273 -2.9000000953674316,2.7699999809265137 a3,3 0 0 0 -1.1100000143051147,-0.7699999809265137 a3,3 0 0 1 4,-2 zm42.65999984741211,2.7699999809265137 c-0.8999999761581421,-0.9800000190734863 -1.8700000047683716,-1.899999976158142 -2.9000000953674316,-2.7699999809265137 a3,3 0 0 1 4.010000228881836,2 a3,3 0 0 0 -1.100000023841858,0.7699999809265137 zm1.340000033378601,1.5399999618530273 c0.3799999952316284,0.47999998927116394 0.75,0.9599999785423279 1.100000023841858,1.4500000476837158 a1,1 0 1 0 -1.100000023841858,-1.4500000476837158 zm3.7300000190734863,5.840000152587891 c-0.46000000834465027,-0.9200000166893005 -0.949999988079071,-1.8200000524520874 -1.5,-2.680000066757202 a3,3 0 0 0 1.5700000524520874,-1.9900000095367432 a3,3 0 0 1 -0.07000000029802322,4.670000076293945 zm1.7999999523162842,4.53000020980835 c-0.28999999165534973,-0.8999999761581421 -0.6000000238418579,-1.7999999523162842 -0.9700000286102295,-2.6700000762939453 c0.4399999976158142,-0.2800000011920929 0.8399999737739563,-0.6299999952316284 1.1699999570846558,-1.0299999713897705 a2,2 0 0 1 -0.20000000298023224,3.700000047683716 zm1.1399999856948853,5.510000228881836 c-0.14000000059604645,-1.2100000381469727 -0.3499999940395355,-2.4000000953674316 -0.6200000047683716,-3.569999933242798 c0.44999998807907104,-0.14000000059604645 0.8600000143051147,-0.3499999940395355 1.2300000190734863,-0.6299999952316284 a2.990000009536743,2.990000009536743 0 0 1 -0.6000000238418579,4.199999809265137 zM63.00584411621094,213.99253645539284 a29,29 0 0 0 -57.970001220703125,0 h57.959999084472656 z" id="svg_7" fill="#dadada" fill-opacity="1"/></g></g></g></svg>